<svg width="314" height="82" viewBox="0 0 314 82" fill="none" xmlns="http://www.w3.org/2000/svg">
<path d="M42.9283 27.957C42.3838 29.8034 40.3021 30.7179 38.4879 29.9824C36.8524 29.3195 36.0328 27.5443 36.4344 25.8571C36.6895 24.7852 36.8733 23.7643 36.9859 22.7943C37.2073 20.9466 37.2049 19.3042 36.9787 17.8671C36.7526 16.4299 36.3047 15.2393 35.6352 14.2952C34.9865 13.3326 34.1391 12.6393 33.093 12.2152C31.2344 11.4618 29.179 11.7589 26.9268 13.1062C24.6842 14.4307 22.3742 16.7772 19.9965 20.1458C17.6287 23.4914 15.3219 27.8171 13.0762 33.1228C10.7916 38.5203 9.27287 43.2327 8.52009 47.2599C7.78816 51.2687 7.73586 54.5035 8.36319 56.9644C9.01137 59.4067 10.2592 61.0024 12.1066 61.7512C13.1304 62.1662 14.2042 62.2786 15.3278 62.0882C16.4723 61.8794 17.634 61.3682 18.8129 60.5544C20.0029 59.7451 21.183 58.6359 22.3532 57.2266C22.9663 56.4976 23.5635 55.6898 24.145 54.8031C25.1057 53.338 26.9835 52.6617 28.6192 53.346C30.4195 54.0991 31.2113 56.1845 30.2423 57.8495C29.0518 59.8949 27.778 61.7976 26.4209 63.5576C24.4086 66.1863 22.3029 68.3735 20.1037 70.1191C17.9143 71.8418 15.7175 72.9964 13.5135 73.583C11.3192 74.1466 9.20373 74.0156 7.16713 73.1901C4.1623 71.9721 2.08782 69.4493 0.94369 65.6219C-0.200441 61.7945 -0.304212 56.8953 0.632374 50.9244C1.56896 44.9535 3.64133 38.1783 6.84949 30.5987C10.0674 22.9962 13.503 16.7736 17.1565 11.9309C20.8197 7.06525 24.4386 3.67509 28.0131 1.76041C31.5877 -0.15426 34.8662 -0.507095 37.8488 0.701907C39.7519 1.47332 41.288 2.74184 42.4574 4.50747C43.6267 6.2731 44.3992 8.48334 44.7749 11.1382C45.1603 13.7701 45.1135 16.7918 44.6343 20.2034C44.3072 22.6254 43.7385 25.2099 42.9283 27.957Z" fill="black"/>
<path d="M31.2798 39.4419C32.0776 37.5572 34.2855 36.6622 36.2113 37.4429L36.3961 37.5178C38.322 38.2984 39.2365 40.4591 38.4388 42.3438C37.6411 44.2285 35.4332 45.1235 33.5073 44.3428L33.3225 44.2679C31.3967 43.4872 30.4821 41.3265 31.2798 39.4419Z" fill="black"/>
<path d="M102.777 63.8721C101.594 64.592 100.23 65.2863 98.6858 65.9548C97.1419 66.6234 95.4435 67.1377 93.5907 67.4976C91.7379 67.9091 89.7308 68.1148 87.5692 68.1148C83.4005 68.1148 79.6177 67.3948 76.221 65.9548C72.8242 64.4635 69.9164 62.4578 67.4975 59.9379C65.0786 57.3666 63.2001 54.4352 61.862 51.1439C60.5753 47.8012 59.932 44.2527 59.932 40.4986C59.932 36.4873 60.6268 32.7589 62.0164 29.3133C63.406 25.8677 65.3617 22.8592 67.8835 20.2879C70.4053 17.7165 73.3389 15.7109 76.6842 14.2709C80.0294 12.831 83.6578 12.111 87.5692 12.111C90.4513 12.111 93.1533 12.4967 95.6751 13.2681C98.1969 14.0395 100.487 15.0423 102.546 16.2766L100.925 19.7479C99.1233 18.6165 97.0904 17.6651 94.8259 16.8937C92.5614 16.1223 90.1682 15.7366 87.6464 15.7366C84.4041 15.7366 81.3418 16.3794 78.4597 17.6651C75.5777 18.8993 73.0301 20.6479 70.8171 22.9106C68.6555 25.122 66.9571 27.719 65.7219 30.7018C64.4867 33.6845 63.8692 36.8987 63.8692 40.3443C63.8692 43.6356 64.4096 46.7469 65.4903 49.6783C66.6226 52.6096 68.218 55.1809 70.2767 57.3923C72.3868 59.6036 74.9086 61.3521 77.8422 62.6378C80.7757 63.8721 84.0438 64.4892 87.6464 64.4892C90.3226 64.4892 92.7673 64.1292 94.9803 63.4092C97.2448 62.6378 99.252 61.6864 101.002 60.555L102.777 63.8721Z" fill="black"/>
<path d="M127.435 68.1148C124.553 68.1148 121.928 67.4719 119.561 66.1863C117.245 64.8492 115.392 62.9978 114.003 60.6322C112.664 58.2665 111.995 55.5152 111.995 52.3782C111.995 49.0354 112.716 46.1812 114.157 43.8156C115.598 41.3986 117.554 39.5729 120.024 38.3387C122.494 37.053 125.299 36.4102 128.439 36.4102C131.115 36.4102 133.637 37.2073 136.004 38.8015C138.423 40.3957 140.147 42.4014 141.177 44.8184L140.636 45.8984L141.099 37.3358H144.342V67.4976H140.713V58.1637L141.485 59.5522C141.125 60.5807 140.508 61.6093 139.633 62.6378C138.758 63.6149 137.677 64.5406 136.39 65.4149C135.155 66.2377 133.765 66.9062 132.221 67.4205C130.729 67.8833 129.134 68.1148 127.435 68.1148ZM128.207 65.0292C130.472 65.0292 132.505 64.5663 134.306 63.6406C136.159 62.6635 137.651 61.3264 138.783 59.6293C139.916 57.9323 140.559 55.9781 140.713 53.7667V49.4468C140.302 47.5441 139.478 45.847 138.243 44.3556C137.059 42.8642 135.593 41.6814 133.843 40.8071C132.093 39.9329 130.189 39.4958 128.13 39.4958C125.865 39.4958 123.781 40.0357 121.877 41.1157C119.973 42.1442 118.454 43.6099 117.322 45.5127C116.19 47.4155 115.624 49.6525 115.624 52.2239C115.624 54.5895 116.19 56.7495 117.322 58.7037C118.454 60.6065 119.973 62.1493 121.877 63.3321C123.833 64.4635 125.943 65.0292 128.207 65.0292Z" fill="black"/>
<path d="M174.727 68.1148C171.845 68.1148 169.143 67.3691 166.621 65.8777C164.099 64.3349 162.246 62.355 161.062 59.9379L161.68 58.6265V82H158.052V37.1044H161.294L161.68 46.9784L160.985 44.7413C162.323 42.3242 164.279 40.3443 166.852 38.8015C169.426 37.2073 172.231 36.4102 175.267 36.4102C178.149 36.4102 180.748 37.1044 183.064 38.4929C185.38 39.8815 187.207 41.7843 188.545 44.2013C189.935 46.5669 190.63 49.2926 190.63 52.3782C190.63 55.4123 189.909 58.138 188.468 60.555C187.078 62.9207 185.174 64.772 182.755 66.1091C180.388 67.4462 177.712 68.1148 174.727 68.1148ZM174.109 65.1063C176.477 65.1063 178.612 64.5406 180.517 63.4092C182.472 62.2778 184.016 60.7607 185.149 58.8579C186.332 56.9037 186.924 54.7438 186.924 52.3782C186.924 49.9611 186.358 47.8012 185.226 45.8984C184.093 43.9442 182.575 42.4014 180.671 41.27C178.818 40.1386 176.708 39.5729 174.341 39.5729C172.076 39.5729 170.018 40.0872 168.165 41.1157C166.312 42.1442 164.82 43.5328 163.687 45.2813C162.555 47.0298 161.886 49.0097 161.68 51.2211V53.6896C161.834 55.7981 162.478 57.7266 163.61 59.4751C164.794 61.2236 166.286 62.6121 168.088 63.6406C169.94 64.6177 171.948 65.1063 174.109 65.1063Z" fill="black"/>
<path d="M208.503 68.1148C206.753 68.1148 204.926 67.8062 203.022 67.1891C201.118 66.5205 199.574 65.4663 198.39 64.0263L200.088 61.635C201.118 62.715 202.327 63.5892 203.717 64.2578C205.158 64.8749 206.676 65.1834 208.271 65.1834C209.455 65.1834 210.562 65.0292 211.591 64.7206C212.672 64.3606 213.547 63.7692 214.216 62.9464C214.885 62.1235 215.219 61.0179 215.219 59.6293C215.219 58.1894 214.808 57.0837 213.984 56.3123C213.212 55.5409 212.209 54.9238 210.973 54.461C209.79 53.9467 208.529 53.4838 207.191 53.0724C204.978 52.3525 203.151 51.3753 201.709 50.1411C200.32 48.9069 199.625 47.1584 199.625 44.8956C199.625 43.2499 200.011 41.81 200.783 40.5757C201.607 39.3415 202.713 38.3901 204.103 37.7215C205.492 37.0016 207.062 36.6416 208.812 36.6416C210.407 36.6416 211.977 36.8987 213.521 37.413C215.116 37.9272 216.557 38.8015 217.844 40.0357L216.223 42.5814C215.399 41.45 214.293 40.6786 212.903 40.2672C211.565 39.8558 210.381 39.6243 209.352 39.5729C208.477 39.5729 207.551 39.7529 206.573 40.1129C205.647 40.4729 204.849 41.0129 204.18 41.7328C203.562 42.4014 203.253 43.3013 203.253 44.4327C203.253 45.6155 203.588 46.5927 204.257 47.3641C204.926 48.084 205.775 48.6754 206.805 49.1383C207.885 49.6011 208.992 50.0383 210.124 50.4497C211.617 50.9125 213.006 51.4782 214.293 52.1467C215.631 52.7639 216.712 53.6124 217.535 54.6924C218.41 55.7209 218.848 57.1094 218.848 58.8579C218.848 60.6065 218.462 62.2007 217.69 63.6406C216.918 65.0292 215.76 66.1348 214.216 66.9577C212.723 67.7291 210.819 68.1148 208.503 68.1148Z" fill="black"/>
<path d="M239.318 68.3462C236.487 68.3462 234.223 67.5234 232.524 65.8777C230.826 64.1806 229.925 61.995 229.823 59.3208V37.3358H233.451V58.2408C233.554 60.195 234.171 61.815 235.304 63.1007C236.487 64.3863 238.237 65.0806 240.553 65.1834C242.509 65.1834 244.336 64.6692 246.034 63.6406C247.733 62.6121 249.096 61.2236 250.126 59.4751C251.207 57.6751 251.747 55.6438 251.747 53.381V37.3358H255.375V67.4976H252.133L251.747 58.0094L252.287 60.0922C251.773 61.635 250.846 63.0492 249.508 64.3349C248.222 65.5691 246.678 66.5462 244.876 67.2662C243.126 67.9862 241.274 68.3462 239.318 68.3462Z" fill="black"/>
<path d="M269.1 8.87111H272.729V67.4976H269.1V8.87111Z" fill="black"/>
<path d="M299.564 68.1148C296.424 68.1148 293.645 67.4205 291.226 66.032C288.807 64.6435 286.903 62.7664 285.514 60.4007C284.176 57.9837 283.506 55.2838 283.506 52.301C283.506 49.3697 284.227 46.6955 285.668 44.2785C287.109 41.8614 289.039 39.9329 291.458 38.4929C293.928 37.053 296.656 36.333 299.641 36.333C303.244 36.333 306.254 37.3873 308.673 39.4958C311.144 41.6043 312.919 44.3556 314 47.7498L287.598 57.9323L286.517 55.3095L310.68 45.8984L309.908 46.9784C309.034 44.9213 307.695 43.1471 305.894 41.6557C304.144 40.1643 301.983 39.4186 299.409 39.4186C297.093 39.4186 295.009 39.9843 293.156 41.1157C291.304 42.2471 289.811 43.7642 288.679 45.667C287.598 47.5698 287.058 49.7297 287.058 52.1467C287.058 54.4095 287.572 56.518 288.602 58.4722C289.682 60.4265 291.175 61.995 293.079 63.1778C294.983 64.3606 297.171 64.952 299.641 64.952C301.288 64.952 302.858 64.6435 304.35 64.0263C305.894 63.4092 307.258 62.6121 308.442 61.635L310.294 64.2578C308.853 65.3891 307.181 66.3148 305.277 67.0348C303.424 67.7548 301.52 68.1148 299.564 68.1148Z" fill="black"/>
</svg>
