<svg width="314" height="83" viewBox="0 0 314 83" fill="none" xmlns="http://www.w3.org/2000/svg">
<path d="M42.9283 27.9783C42.3838 29.8261 40.3021 30.7412 38.4879 30.0052C36.8524 29.3418 36.0328 27.5652 36.4344 25.8768C36.6895 24.8041 36.8733 23.7824 36.9859 22.8117C37.2073 20.9625 37.2049 19.3189 36.9787 17.8806C36.7526 16.4424 36.3047 15.2509 35.6352 14.306C34.9865 13.3427 34.1391 12.6489 33.093 12.2245C31.2344 11.4706 29.179 11.7678 26.9268 13.1162C24.6842 14.4417 22.3742 16.7899 19.9965 20.1611C17.6287 23.5093 15.3219 27.8382 13.0762 33.1479C10.7916 38.5496 9.27287 43.2656 8.52009 47.2959C7.78816 51.3077 7.73586 54.545 8.36319 57.0077C9.01137 59.4519 10.2592 61.0487 12.1066 61.7982C13.1304 62.2135 14.2042 62.326 15.3278 62.1355C16.4723 61.9265 17.634 61.4148 18.8129 60.6004C20.0029 59.7906 21.183 58.6805 22.3532 57.2701C22.9663 56.5406 23.5635 55.7321 24.145 54.8448C25.1057 53.3786 26.9835 52.7017 28.6192 53.3865C30.4195 54.1403 31.2113 56.2273 30.2423 57.8935C29.0518 59.9405 27.778 61.8446 26.4209 63.6059C24.4086 66.2366 22.3029 68.4255 20.1037 70.1724C17.9143 71.8964 15.7175 73.0519 13.5135 73.639C11.3192 74.203 9.20373 74.0719 7.16713 73.2457C4.1623 72.0268 2.08782 69.5022 0.94369 65.6718C-0.200441 61.8415 -0.304212 56.9386 0.632374 50.9632C1.56896 44.9877 3.64133 38.2073 6.84949 30.622C10.0674 23.0137 13.503 16.7864 17.1565 11.94C20.8197 7.07062 24.4386 3.67788 28.0131 1.76175C31.5877 -0.154378 34.8662 -0.50748 37.8488 0.702441C39.7519 1.47444 41.288 2.74393 42.4574 4.5109C43.6267 6.27787 44.3992 8.48979 44.7749 11.1467C45.1603 13.7805 45.1135 16.8046 44.6343 20.2188C44.3072 22.6426 43.7385 25.2291 42.9283 27.9783Z" fill="white"/>
<path d="M31.2798 39.4719C32.0776 37.5857 34.2855 36.6901 36.2113 37.4713L36.3961 37.5463C38.322 38.3276 39.2365 40.4899 38.4388 42.376C37.6411 44.2621 35.4332 45.1578 33.5073 44.3765L33.3225 44.3015C31.3967 43.5203 30.4821 41.358 31.2798 39.4719Z" fill="white"/>
<path d="M102.777 63.9206C101.594 64.6412 100.23 65.3359 98.6858 66.005C97.1419 66.6741 95.4435 67.1887 93.5907 67.549C91.7379 67.9607 89.7308 68.1666 87.5692 68.1666C83.4005 68.1666 79.6177 67.446 76.221 66.005C72.8242 64.5125 69.9164 62.5053 67.4975 59.9835C65.0786 57.4102 63.2001 54.4766 61.862 51.1828C60.5753 47.8375 59.932 44.2864 59.932 40.5294C59.932 36.515 60.6268 32.7838 62.0164 29.3356C63.406 25.8873 65.3617 22.8766 67.8835 20.3033C70.4053 17.73 73.3389 15.7228 76.6842 14.2818C80.0294 12.8407 83.6578 12.1202 87.5692 12.1202C90.4513 12.1202 93.1533 12.5062 95.6751 13.2782C98.1969 14.0502 100.487 15.0538 102.546 16.2889L100.925 19.7629C99.1233 18.6306 97.0904 17.6785 94.8259 16.9065C92.5614 16.1346 90.1682 15.7486 87.6464 15.7486C84.4041 15.7486 81.3418 16.3919 78.4597 17.6785C75.5777 18.9137 73.0301 20.6636 70.8171 22.9281C68.6555 25.1411 66.9571 27.7401 65.7219 30.7251C64.4867 33.7102 63.8692 36.9268 63.8692 40.375C63.8692 43.6688 64.4096 46.7825 65.4903 49.716C66.6226 52.6496 68.218 55.2229 70.2767 57.4359C72.3868 59.649 74.9086 61.3988 77.8422 62.6855C80.7757 63.9206 84.0438 64.5382 87.6464 64.5382C90.3226 64.5382 92.7673 64.178 94.9803 63.4574C97.2448 62.6855 99.252 61.7333 101.002 60.6011L102.777 63.9206Z" fill="white"/>
<path d="M127.435 68.1666C124.553 68.1666 121.928 67.5232 119.561 66.2366C117.245 64.8985 115.392 63.0457 114.003 60.6783C112.664 58.3108 111.995 55.5574 111.995 52.418C111.995 49.0727 112.716 46.2164 114.157 43.8489C115.598 41.43 117.554 39.603 120.024 38.3678C122.494 37.0812 125.299 36.4378 128.439 36.4378C131.115 36.4378 133.637 37.2356 136.004 38.831C138.423 40.4265 140.147 42.4336 141.177 44.8525L140.636 45.9333L141.099 37.3642H144.342V67.549H140.713V58.2079L141.485 59.5975C141.125 60.6268 140.508 61.6561 139.633 62.6855C138.758 63.6633 137.677 64.5897 136.39 65.4646C135.155 66.2881 133.765 66.9571 132.221 67.4718C130.729 67.935 129.134 68.1666 127.435 68.1666ZM128.207 65.0786C130.472 65.0786 132.505 64.6154 134.306 63.689C136.159 62.7112 137.651 61.3731 138.783 59.6747C139.916 57.9763 140.559 56.0206 140.713 53.8076V49.4844C140.302 47.5802 139.478 45.8818 138.243 44.3893C137.059 42.8968 135.592 41.7131 133.843 40.8382C132.093 39.9633 130.189 39.5258 128.13 39.5258C125.865 39.5258 123.781 40.0662 121.877 41.147C119.973 42.1763 118.454 43.6431 117.322 45.5473C116.19 47.4515 115.624 49.6903 115.624 52.2636C115.624 54.631 116.19 56.7926 117.322 58.7483C118.454 60.6525 119.973 62.1965 121.877 63.3802C123.833 64.5125 125.943 65.0786 128.207 65.0786Z" fill="white"/>
<path d="M174.727 68.1666C171.845 68.1666 169.143 67.4203 166.621 65.9278C164.099 64.3838 162.246 62.4024 161.062 59.9835L161.68 58.6711V82.0624H158.052V37.1326H161.294L161.68 47.0141L160.985 44.7753C162.323 42.3564 164.279 40.375 166.852 38.831C169.426 37.2356 172.231 36.4378 175.267 36.4378C178.149 36.4378 180.748 37.1326 183.064 38.5222C185.38 39.9118 187.207 41.816 188.545 44.2349C189.935 46.6024 190.63 49.33 190.63 52.418C190.63 55.4545 189.909 58.1822 188.468 60.6011C187.078 62.9685 185.174 64.8213 182.755 66.1594C180.388 67.4975 177.712 68.1666 174.727 68.1666ZM174.109 65.1558C176.477 65.1558 178.612 64.5897 180.517 63.4574C182.472 62.3252 184.016 60.8069 185.149 58.9027C186.332 56.947 186.924 54.7854 186.924 52.418C186.924 49.9991 186.358 47.8375 185.226 45.9333C184.093 43.9776 182.575 42.4336 180.671 41.3014C178.818 40.1691 176.708 39.603 174.341 39.603C172.076 39.603 170.018 40.1177 168.165 41.147C166.312 42.1763 164.82 43.5659 163.687 45.3157C162.555 47.0656 161.886 49.047 161.68 51.26V53.7304C161.834 55.8405 162.478 57.7705 163.61 59.5203C164.794 61.2701 166.286 62.6597 168.088 63.689C169.94 64.6669 171.948 65.1558 174.109 65.1558Z" fill="white"/>
<path d="M208.503 68.1666C206.753 68.1666 204.926 67.8578 203.022 67.2402C201.118 66.5711 199.574 65.5161 198.39 64.075L200.088 61.6819C201.118 62.7626 202.327 63.6376 203.717 64.3066C205.158 64.9242 206.676 65.233 208.271 65.233C209.455 65.233 210.562 65.0786 211.591 64.7698C212.672 64.4096 213.547 63.8177 214.216 62.9942C214.885 62.1708 215.219 61.0643 215.219 59.6747C215.219 58.2337 214.808 57.1271 213.984 56.3551C213.212 55.5832 212.209 54.9656 210.973 54.5024C209.79 53.9877 208.529 53.5245 207.191 53.1128C204.978 52.3923 203.151 51.4144 201.709 50.1792C200.32 48.9441 199.625 47.1942 199.625 44.9297C199.625 43.2828 200.011 41.8418 200.783 40.6066C201.607 39.3714 202.713 38.4193 204.103 37.7502C205.492 37.0297 207.062 36.6694 208.812 36.6694C210.407 36.6694 211.977 36.9268 213.521 37.4414C215.116 37.9561 216.557 38.831 217.844 40.0662L216.223 42.6138C215.399 41.4815 214.293 40.7095 212.903 40.2978C211.565 39.8861 210.381 39.6545 209.352 39.603C208.477 39.603 207.551 39.7831 206.573 40.1434C205.647 40.5037 204.849 41.044 204.18 41.7646C203.562 42.4336 203.253 43.3343 203.253 44.4665C203.253 45.6502 203.588 46.6281 204.257 47.4001C204.926 48.1206 205.775 48.7125 206.805 49.1757C207.885 49.6388 208.992 50.0763 210.124 50.488C211.617 50.9512 213.006 51.5173 214.293 52.1864C215.631 52.804 216.712 53.6532 217.535 54.734C218.41 55.7633 218.848 57.1529 218.848 58.9027C218.848 60.6525 218.462 62.248 217.69 63.689C216.918 65.0786 215.76 66.1851 214.216 67.0086C212.723 67.7806 210.819 68.1666 208.503 68.1666Z" fill="white"/>
<path d="M239.318 68.3982C236.487 68.3982 234.223 67.5747 232.524 65.9278C230.826 64.2294 229.925 62.0421 229.823 59.3659V37.3642H233.451V58.2851C233.554 60.2408 234.171 61.862 235.304 63.1486C236.487 64.4353 238.237 65.1301 240.553 65.233C242.509 65.233 244.336 64.7183 246.034 63.689C247.733 62.6597 249.096 61.2701 250.126 59.5203C251.207 57.719 251.747 55.6861 251.747 53.4216V37.3642H255.375V67.549H252.133L251.747 58.0535L252.287 60.1379C251.773 61.6819 250.846 63.0972 249.508 64.3838C248.222 65.619 246.678 66.5969 244.876 67.3174C243.126 68.0379 241.274 68.3982 239.318 68.3982Z" fill="white"/>
<path d="M269.1 8.87786H272.729V67.549H269.1V8.87786Z" fill="white"/>
<path d="M299.564 68.1666C296.424 68.1666 293.645 67.4718 291.226 66.0822C288.807 64.6926 286.903 62.8141 285.514 60.4467C284.176 58.0278 283.506 55.3258 283.506 52.3408C283.506 49.4072 284.227 46.731 285.668 44.3121C287.109 41.8932 289.039 39.9633 291.458 38.5222C293.928 37.0812 296.656 36.3606 299.641 36.3606C303.244 36.3606 306.254 37.4157 308.673 39.5258C311.144 41.6359 312.919 44.3893 314 47.7861L287.598 57.9763L286.517 55.3516L310.68 45.9333L309.908 47.0141C309.034 44.9555 307.695 43.1799 305.894 41.6874C304.144 40.1949 301.983 39.4486 299.409 39.4486C297.093 39.4486 295.009 40.0147 293.156 41.147C291.304 42.2792 289.811 43.7975 288.679 45.7017C287.598 47.6059 287.058 49.7675 287.058 52.1864C287.058 54.4509 287.572 56.561 288.602 58.5167C289.682 60.4724 291.175 62.0421 293.079 63.2258C294.983 64.4096 297.171 65.0014 299.641 65.0014C301.288 65.0014 302.858 64.6926 304.35 64.075C305.894 63.4574 307.258 62.6597 308.442 61.6819L310.294 64.3066C308.853 65.4389 307.181 66.3653 305.277 67.0858C303.424 67.8063 301.52 68.1666 299.564 68.1666Z" fill="white"/>
</svg>
